<svg width="1255" height="290" viewBox="0 0 1255 290" fill="none" xmlns="http://www.w3.org/2000/svg">
<path d="M807.3 220.9C802.7 216 800.4 210.3 800.4 203.8V0.399994H732.1V198.9C732.1 214.6 735.8 229 743.1 242C750.4 255 760.7 265.5 774 273.3C787.3 281.2 802.7 285.1 820.4 285.1H899.7V228.2H824.4C817.6 228.2 811.9 225.8 807.3 220.9Z" fill="#8662E7"/>
<path d="M1131.1 61C1135.4 58.6 1140.2 57.3 1145.3 57.3L1254.7 57.7V0.399994H1134.7C1119.2 0.399994 1105.1 4 1092.4 11.2C1079.7 18.4 1069.5 28.2 1061.9 40.5C1054.3 52.8 1050.5 66.9 1050.5 82.6C1050.5 93.7 1053 104.3 1058 114.3C1063 124.3 1069.9 133 1078.5 140.3C1069.6 147.9 1062.4 156.9 1057.1 167.4C1051.8 177.8 1049.2 189 1049.2 201C1049.2 217 1053.1 231.3 1060.8 243.9C1068.5 256.5 1078.9 266.5 1091.9 274C1104.9 281.5 1119.4 285.2 1135.4 285.2H1254.6V227.8H1147.4C1141.7 227.8 1136.5 226.6 1131.9 224.1C1127.3 221.7 1123.6 218.2 1120.9 213.7C1118.2 209.2 1116.8 204.3 1116.8 198.9C1116.8 193.2 1118.2 188.2 1120.9 183.8C1123.6 179.5 1127.3 175.9 1131.9 173.2C1136.5 170.5 1141.7 169.1 1147.4 169.1H1241V112.2H1145.4C1140.2 112.2 1135.5 111.1 1131.2 108.7C1126.9 106.4 1123.4 103.1 1120.8 98.9C1118.2 94.7 1116.9 90 1116.9 84.9C1116.9 79.5 1118.2 74.7 1120.8 70.7C1123.3 66.7 1126.8 63.5 1131.1 61Z" fill="#8662E7"/>
<path d="M667.5 153.8C660.3 146.8 652.1 141.3 642.9 137.5C650.8 133.7 657.7 128.7 663.8 122.4C669.9 116.2 674.6 109 678 100.8C681.4 92.7 683.1 84.1 683.1 75.2C683.1 60 679.6 46.9 672.7 35.7C665.8 24.6 656.6 15.9 645 9.7C633.5 3.5 620.7 0.299995 606.6 0.299995H416V175.6C416 186.2 413.8 195.7 409.3 204.3C404.8 212.8 398.7 219.6 390.8 224.6C382.9 229.6 373.4 232.1 362.3 232.1C351.4 232.1 342 229.6 333.8 224.6C325.7 219.6 319.4 212.8 315.1 204.3C310.8 195.8 308.6 186.2 308.6 175.6V0.399994H241.1V114H130.7V0.399994H62.4V114H0V168.6H62.4V285.1H130.7V168.7H241.1V172.1C241.1 196.5 246.2 217.5 256.6 235.1C266.9 252.7 281.2 266.3 299.5 275.8C317.8 285.3 338.8 290 362.3 290C385.9 290 406.8 285.3 424.9 275.8C443.1 266.3 457.4 252.8 467.8 235.1C478.2 217.5 483.5 196.5 483.5 172.1V57.4H586.7C592.1 57.4 596.9 58.7 601.1 61.3C605.3 63.9 608.6 67.3 611.1 71.5C613.5 75.7 614.8 80.5 614.8 85.9C614.8 91.1 613.6 95.7 611.1 99.9C608.7 104.1 605.3 107.5 601.1 110.1C596.9 112.7 592.1 114 586.7 114H524.6V168.5H593.6C599.3 168.5 604.4 169.9 608.9 172.6C613.4 175.3 617 178.9 619.7 183.4C622.4 187.9 623.8 193 623.8 198.7C623.8 204.1 622.4 209.1 619.7 213.8C617 218.4 613.4 222.1 608.9 224.8C604.4 227.5 599.3 228.9 593.6 228.9H524.6V285.4H611.5C626.1 285.4 639.4 282.2 651.4 275.8C663.3 269.4 672.9 260.4 680.1 248.8C687.3 237.1 690.9 223.6 690.9 208.1C690.9 197.5 688.8 187.6 684.6 178.4C680.4 168.9 674.7 160.8 667.5 153.8Z" fill="#8662E7"/>
<path d="M1008.3 0H940.8V285.2H1008.3V0Z" fill="#8662E7"/>
</svg>
