<svg width="26" height="25" viewBox="0 0 26 25" fill="none" xmlns="http://www.w3.org/2000/svg">
<circle cx="12.857" cy="12.2525" r="12.2525" fill="#ECEFF2"/>
<path d="M12.6099 9.96172C13.7341 9.96172 14.6515 10.8791 14.6515 12.0033C14.6515 13.1275 13.7341 14.0449 12.6099 14.0449C11.4857 14.0449 10.5683 13.1275 10.5683 12.0033C10.5683 10.8791 11.4857 9.96172 12.6099 9.96172ZM6.48673 12.0033C6.48673 11.1579 6.47907 10.3201 6.52655 9.47622C6.57403 8.49602 6.79763 7.6261 7.5144 6.90933C8.2327 6.19103 9.1011 5.96895 10.0813 5.92147C10.9267 5.87399 11.7645 5.88165 12.6084 5.88165C13.4538 5.88165 14.2916 5.87399 15.1354 5.92147C16.1156 5.96895 16.9856 6.19256 17.7023 6.90933C18.4206 7.62763 18.6427 8.49602 18.6902 9.47622C18.7377 10.3216 18.73 11.1594 18.73 12.0033C18.73 12.8472 18.7377 13.6865 18.6902 14.5304C18.6427 15.5106 18.4191 16.3805 17.7023 17.0973C16.984 17.8156 16.1156 18.0376 15.1354 18.0851C14.29 18.1326 13.4523 18.1249 12.6084 18.1249C11.7629 18.1249 10.9252 18.1326 10.0813 18.0851C9.1011 18.0376 8.23117 17.814 7.5144 17.0973C6.7961 16.379 6.57403 15.5106 6.52655 14.5304C6.47754 13.6865 6.48673 12.8487 6.48673 12.0033ZM12.6099 15.1445C14.3482 15.1445 15.7511 13.7416 15.7511 12.0033C15.7511 10.265 14.3482 8.86207 12.6099 8.86207C10.8716 8.86207 9.46867 10.265 9.46867 12.0033C9.46867 13.7416 10.8716 15.1445 12.6099 15.1445ZM9.34002 9.46703C9.74589 9.46703 10.0736 9.13928 10.0736 8.73341C10.0736 8.32755 9.74589 7.9998 9.34002 7.9998C8.93416 7.9998 8.60641 8.32755 8.60641 8.73341C8.60628 8.82979 8.62518 8.92524 8.662 9.0143C8.69883 9.10336 8.75286 9.18428 8.82101 9.25243C8.88915 9.32058 8.97007 9.37461 9.05914 9.41143C9.1482 9.44826 9.24365 9.46715 9.34002 9.46703Z" fill="#3C1667"/>
</svg>
