<svg width="40" height="40" viewBox="0 0 40 40" fill="none" xmlns="http://www.w3.org/2000/svg">
<circle cx="20" cy="20" r="20" fill="#FF7300"/>
<path d="M19.5971 16.2608C21.4321 16.2608 22.9296 17.7583 22.9296 19.5933C22.9296 21.4283 21.4321 22.9258 19.5971 22.9258C17.7621 22.9258 16.2646 21.4283 16.2646 19.5933C16.2646 17.7583 17.7621 16.2608 19.5971 16.2608ZM9.60215 19.5933C9.60215 18.2133 9.58965 16.8458 9.66715 15.4683C9.74465 13.8683 10.1096 12.4483 11.2796 11.2783C12.4521 10.1058 13.8696 9.74334 15.4696 9.66584C16.8496 9.58834 18.2171 9.60084 19.5946 9.60084C20.9746 9.60084 22.3421 9.58834 23.7196 9.66584C25.3196 9.74334 26.7396 10.1083 27.9096 11.2783C29.0821 12.4508 29.4446 13.8683 29.5221 15.4683C29.5996 16.8483 29.5871 18.2158 29.5871 19.5933C29.5871 20.9708 29.5996 22.3408 29.5221 23.7183C29.4446 25.3183 29.0796 26.7383 27.9096 27.9083C26.7371 29.0808 25.3196 29.4433 23.7196 29.5208C22.3396 29.5983 20.9721 29.5858 19.5946 29.5858C18.2146 29.5858 16.8471 29.5983 15.4696 29.5208C13.8696 29.4433 12.4496 29.0783 11.2796 27.9083C10.1071 26.7358 9.74465 25.3183 9.66715 23.7183C9.58715 22.3408 9.60215 20.9733 9.60215 19.5933ZM19.5971 24.7208C22.4346 24.7208 24.7246 22.4308 24.7246 19.5933C24.7246 16.7558 22.4346 14.4658 19.5971 14.4658C16.7596 14.4658 14.4696 16.7558 14.4696 19.5933C14.4696 22.4308 16.7596 24.7208 19.5971 24.7208ZM14.2596 15.4533C14.9221 15.4533 15.4571 14.9183 15.4571 14.2558C15.4571 13.5933 14.9221 13.0583 14.2596 13.0583C13.5971 13.0583 13.0621 13.5933 13.0621 14.2558C13.0619 14.4132 13.0928 14.569 13.1529 14.7143C13.213 14.8597 13.3012 14.9918 13.4124 15.103C13.5237 15.2143 13.6558 15.3025 13.8012 15.3626C13.9465 15.4227 14.1023 15.4535 14.2596 15.4533Z" fill="white"/>
</svg>
