<svg width="25" height="25" viewBox="0 0 25 25" fill="none" xmlns="http://www.w3.org/2000/svg">
<path d="M12.6491 0.490143C6.15283 0.490143 0.886719 5.75626 0.886719 12.2525C0.886719 18.7488 6.15283 24.0149 12.6491 24.0149C19.1454 24.0149 24.4115 18.7488 24.4115 12.2525C24.4115 5.75626 19.1454 0.490143 12.6491 0.490143ZM9.76976 17.1278H7.38788V9.46263H9.76976V17.1278ZM8.56412 8.52164C7.81182 8.52164 7.32539 7.98866 7.32539 7.32947C7.32539 6.65681 7.82652 6.13976 8.59475 6.13976C9.36298 6.13976 9.83348 6.65681 9.84818 7.32947C9.84818 7.98866 9.36298 8.52164 8.56412 8.52164ZM18.469 17.1278H16.0871V12.8798C16.0871 11.8911 15.7416 11.2196 14.8803 11.2196C14.2223 11.2196 13.8315 11.6742 13.6587 12.1116C13.595 12.2672 13.5791 12.4878 13.5791 12.7071V17.1266H11.196V11.907C11.196 10.9501 11.1653 10.15 11.1335 9.4614H13.2029L13.312 10.5261H13.3597C13.6734 10.0262 14.4416 9.28864 15.7269 9.28864C17.294 9.28864 18.469 10.3387 18.469 12.5956V17.1278Z" fill="#ECEFF2"/>
</svg>
