<svg width="40" height="40" viewBox="0 0 40 40" fill="none" xmlns="http://www.w3.org/2000/svg">
<path d="M20.0008 0.800049C9.39678 0.800049 0.800781 9.39605 0.800781 20C0.800781 30.604 9.39678 39.2001 20.0008 39.2001C30.6048 39.2001 39.2008 30.604 39.2008 20C39.2008 9.39605 30.6048 0.800049 20.0008 0.800049ZM27.8108 16.528C27.8188 16.692 27.8208 16.8561 27.8208 17.0161C27.8208 22.0161 24.0188 27.778 17.0628 27.778C15.0074 27.7815 12.9947 27.1911 11.2668 26.078C11.5608 26.114 11.8628 26.128 12.1688 26.128C13.9408 26.128 15.5708 25.526 16.8648 24.51C16.0762 24.4946 15.3121 24.2334 14.679 23.7631C14.0459 23.2927 13.5753 22.6366 13.3328 21.886C13.8991 21.9937 14.4825 21.9712 15.0388 21.82C14.1829 21.647 13.4132 21.1832 12.8602 20.5074C12.3072 19.8316 12.005 18.9853 12.0048 18.112V18.066C12.5148 18.348 13.0988 18.5201 13.7188 18.5401C12.9164 18.0059 12.3484 17.1854 12.1309 16.2463C11.9134 15.3072 12.0629 14.3206 12.5488 13.488C13.4987 14.656 14.6833 15.6115 16.0259 16.2927C17.3685 16.9738 18.8392 17.3654 20.3428 17.442C20.1516 16.6307 20.2339 15.7789 20.5768 15.0191C20.9197 14.2593 21.504 13.634 22.2389 13.2406C22.9738 12.8471 23.8181 12.7075 24.6406 12.8434C25.463 12.9793 26.2175 13.3831 26.7868 13.992C27.6331 13.8246 28.4447 13.5142 29.1868 13.074C28.9047 13.9503 28.3141 14.6944 27.5248 15.168C28.2745 15.0778 29.0065 14.8762 29.6968 14.57C29.1898 15.3298 28.5511 15.9929 27.8108 16.528V16.528Z" fill="#FF7300"/>
</svg>
