<svg width="25" height="25" viewBox="0 0 25 25" fill="none" xmlns="http://www.w3.org/2000/svg">
<path d="M12.4411 0.490143C5.94482 0.490143 0.678711 5.75626 0.678711 12.2525C0.678711 18.7488 5.94482 24.0149 12.4411 24.0149C18.9373 24.0149 24.2035 18.7488 24.2035 12.2525C24.2035 5.75626 18.9373 0.490143 12.4411 0.490143ZM17.2257 10.1255C17.2306 10.226 17.2318 10.3264 17.2318 10.4244C17.2318 13.4876 14.9026 17.0175 10.6412 17.0175C9.382 17.0196 8.149 16.658 7.09043 15.976C7.27054 15.9981 7.45555 16.0067 7.64302 16.0067C8.72859 16.0067 9.72716 15.6379 10.5199 15.0155C10.0368 15.006 9.5687 14.846 9.18084 14.5578C8.79297 14.2697 8.50467 13.8677 8.35611 13.4079C8.70305 13.4739 9.06044 13.4601 9.40125 13.3675C8.8769 13.2615 8.40536 12.9773 8.06659 12.5633C7.72783 12.1493 7.54268 11.6308 7.54255 11.0959V11.0677C7.85498 11.2405 8.21276 11.3458 8.59258 11.3581C8.10101 11.0309 7.75303 10.5282 7.61979 9.95289C7.48656 9.37759 7.57814 8.77312 7.87581 8.26311C8.45775 8.97866 9.18347 9.56402 10.006 9.98129C10.8285 10.3986 11.7295 10.6385 12.6506 10.6854C12.5335 10.1884 12.5839 9.66652 12.794 9.20105C13.004 8.73557 13.362 8.35254 13.8122 8.11151C14.2624 7.87047 14.7797 7.78493 15.2835 7.86818C15.7874 7.95143 16.2496 8.19882 16.5984 8.57187C17.1168 8.46929 17.6141 8.27911 18.0686 8.00949C17.8958 8.54631 17.534 9.00215 17.0505 9.29232C17.5097 9.237 17.9582 9.11353 18.3811 8.92597C18.0705 9.39144 17.6792 9.79766 17.2257 10.1255Z" fill="#ECEFF2"/>
</svg>
