<svg width="24" height="25" viewBox="0 0 24 25" fill="none" xmlns="http://www.w3.org/2000/svg">
<path d="M14.0292 12.0479L11.2773 10.7638C11.0371 10.6523 10.8399 10.7773 10.8399 11.0432V13.4618C10.8399 13.7277 11.0371 13.8527 11.2773 13.7412L14.028 12.4571C14.2693 12.3444 14.2693 12.1606 14.0292 12.0479ZM12.0651 0.490143C5.56885 0.490143 0.302734 5.75626 0.302734 12.2525C0.302734 18.7488 5.56885 24.0149 12.0651 24.0149C18.5614 24.0149 23.8275 18.7488 23.8275 12.2525C23.8275 5.75626 18.5614 0.490143 12.0651 0.490143ZM12.0651 17.031C6.04424 17.031 5.93887 16.4882 5.93887 12.2525C5.93887 8.01684 6.04424 7.47405 12.0651 7.47405C18.086 7.47405 18.1913 8.01684 18.1913 12.2525C18.1913 16.4882 18.086 17.031 12.0651 17.031Z" fill="#ECEFF2"/>
</svg>
