<svg width="40" height="40" viewBox="0 0 40 40" fill="none" xmlns="http://www.w3.org/2000/svg">
<path d="M23.2068 19.666L18.7148 17.57C18.3228 17.388 18.0008 17.592 18.0008 18.026V21.9741C18.0008 22.4081 18.3228 22.612 18.7148 22.43L23.2048 20.334C23.5988 20.15 23.5988 19.85 23.2068 19.666ZM20.0008 0.800049C9.39678 0.800049 0.800781 9.39605 0.800781 20C0.800781 30.604 9.39678 39.2001 20.0008 39.2001C30.6048 39.2001 39.2008 30.604 39.2008 20C39.2008 9.39605 30.6048 0.800049 20.0008 0.800049ZM20.0008 27.8C10.1728 27.8 10.0008 26.914 10.0008 20C10.0008 13.086 10.1728 12.2 20.0008 12.2C29.8288 12.2 30.0008 13.086 30.0008 20C30.0008 26.914 29.8288 27.8 20.0008 27.8Z" fill="#FF7300"/>
</svg>
